<svg xmlns="http://www.w3.org/2000/svg" width="433" height="577" viewBox="0 0 433 577" version="1.1"><path d="" stroke="none" fill="#e4e4e4" fill-rule="evenodd"/><path d="M 211.655 111.829 C 210.306 113.320, 210 115.907, 210 125.829 C 210 137.694, 209.945 138, 207.805 138 C 204.960 138, 200 142.765, 200 145.498 C 200 147.202, 199.036 147.869, 195.125 148.871 C 171.517 154.922, 169.459 163.035, 181.090 204.193 C 184.959 217.887, 184.959 217.887, 181.980 220.867 C 178.409 224.437, 178.081 228.562, 181.065 232.355 C 183.253 235.138, 182.927 237.293, 180.460 236.346 C 178.267 235.505, 174.145 238.628, 172.275 242.549 C 168.835 249.764, 175.174 256, 185.949 256 C 190.962 256, 190.962 256, 190.515 260.250 C 190.269 262.587, 189.804 269.900, 189.482 276.500 C 189.161 283.100, 188.663 292.005, 188.375 296.288 C 187.854 304.076, 187.854 304.076, 191.147 300.856 C 194.721 297.362, 196.858 286.412, 196.973 271 C 197.062 259.123, 197.638 257.484, 201.684 257.602 C 204.957 257.698, 207.093 284.383, 204.391 291.425 C 203.965 292.534, 205.458 292.688, 212.418 292.254 C 223.990 291.532, 237.257 296.524, 242.235 303.474 C 243.182 304.796, 243.221 305.751, 241.601 287.911 C 238.815 257.206, 238.957 256.299, 246.636 255.810 C 260.111 254.952, 264.113 240.511, 251.890 236.849 C 247.554 235.550, 247.370 235.215, 249.468 232.441 C 252.006 229.086, 251.370 223.977, 247.980 220.480 C 244.960 217.364, 244.960 217.364, 246.608 212.932 C 249.663 204.715, 256.767 175.531, 256.633 171.750 C 256.560 169.687, 256.950 167.992, 257.500 167.984 C 258.167 167.974, 258.167 167.724, 257.500 167.235 C 256.950 166.831, 256.376 165.392, 256.224 164.037 C 255.692 159.285, 246.945 152.655, 236.869 149.365 C 232.003 147.776, 230.983 146.986, 229.369 143.560 C 228.009 140.674, 226.581 139.296, 224.126 138.500 C 220.752 137.406, 220.752 137.406, 220.932 126.113 C 221.166 111.361, 217.369 105.515, 211.655 111.829 M 198.758 154.410 C 190.237 156.665, 182.517 160.679, 180.500 163.902 C 178.957 166.367, 178.160 170.887, 179.206 171.235 C 179.721 171.407, 180.994 174.462, 182.034 178.024 C 192.711 214.588, 193.510 216.480, 198.405 216.805 C 200.932 216.972, 203 216.873, 203 216.584 C 203 215.312, 195.883 174.360, 195.446 173.116 C 193.921 168.776, 197.530 162.489, 204.527 157.293 C 212.178 151.611, 211.748 152.062, 209.500 152.080 C 208.400 152.088, 203.566 153.137, 198.758 154.410 M 298.378 208.437 C 292.521 210.986, 290.597 215.929, 293.649 220.587 C 295.583 223.539, 295.138 224.066, 288.722 226.428 C 285.643 227.561, 282.828 229.576, 280.805 232.093 C 278.041 235.533, 277.156 236, 273.406 236 C 269.146 236, 269.146 236, 272.528 241.617 C 275.970 247.333, 282 260.939, 282 262.989 C 282 263.610, 282.408 263.866, 282.907 263.558 C 283.405 263.249, 283.566 263.944, 283.263 265.101 C 282.956 266.276, 283.274 267.552, 283.985 267.991 C 285.675 269.035, 284.371 271, 281.986 271 C 277.081 271, 273.193 279.050, 276.500 282.357 C 278.700 284.557, 278.333 286, 275.573 286 C 272.744 286, 268.985 290.245, 269.032 293.385 C 269.098 297.789, 273.598 301, 279.705 301 C 283.541 301, 283.541 301, 282.819 311.750 C 279.587 359.829, 273.957 389.342, 263.902 410.908 C 261.746 415.532, 260.099 419.433, 260.243 419.576 C 261.425 420.759, 265.815 420.939, 266.275 419.824 C 272.179 405.520, 274.228 399.651, 276.366 390.931 C 280.484 374.137, 283.721 351.208, 285.465 326.500 C 287.314 300.292, 287.185 301.185, 289.199 300.658 C 292.187 299.877, 292.339 301.503, 291.691 327.357 C 290.492 375.190, 281.236 424.029, 273.221 424.812 C 270.023 425.125, 270.023 425.125, 272.012 429.023 C 273.105 431.166, 274 434.493, 274 436.415 C 274 438.872, 274.796 440.705, 276.682 442.591 C 280.204 446.113, 282.058 453.289, 280.941 459.074 C 280.472 461.508, 280.068 463.852, 280.044 464.282 C 279.930 466.313, 362.380 464.588, 365.220 462.500 C 371.660 457.764, 369.607 445, 362.406 445 C 360.388 445, 359.801 443.240, 361.045 440.915 C 363.800 435.769, 358.790 426.746, 352.525 425.571 C 340.674 423.347, 329.012 388.147, 323.514 338 C 323.078 334.028, 321.094 305.516, 321.026 302.250 C 321.010 301.477, 322.372 301, 324.596 301 C 329.034 301, 333.898 298.253, 334.631 295.332 C 335.800 290.677, 332.655 286.094, 328.250 286.032 C 325.649 285.995, 325.350 284.785, 327.500 283 C 331.200 279.929, 327.141 271, 322.045 271 C 319.529 271, 319.527 270.770, 321.986 263.281 C 324.570 255.408, 327.039 249.961, 331.582 242.104 C 335.280 235.708, 335.280 235.708, 330.668 236.228 C 326.605 236.686, 325.975 236.495, 325.384 234.624 C 324.266 231.081, 315.555 225, 311.599 225 C 309.260 225, 308.656 223.038, 310.402 221.108 C 316.453 214.422, 307.150 204.619, 298.378 208.437 M 279 240.873 C 279 241.353, 279.984 243.940, 281.187 246.623 C 282.390 249.305, 284.573 255.503, 286.038 260.396 C 287.562 265.484, 289.017 268.782, 289.438 268.101 C 290.321 266.671, 290.374 242.414, 289.496 240.994 C 288.741 239.772, 279 239.659, 279 240.873 M 104 274.473 C 104 274.798, 104.675 276.680, 105.500 278.654 C 107.697 283.912, 107.581 284.143, 100.557 288.432 C 96.532 290.890, 93.441 293.631, 92.309 295.744 C 91.314 297.603, 88.025 300.732, 85 302.698 C 67.526 314.052, 67 314.604, 67 321.597 C 67 325.019, 69.341 332, 70.489 332 C 71.821 332, 78.726 328.035, 79.939 326.573 C 81.432 324.774, 84.566 324.489, 85.539 326.063 C 86.221 327.166, 83.341 331, 81.831 331 C 76.475 331, 72.891 337.197, 77.321 338.799 C 82.349 340.617, 83.816 340.300, 87.301 336.641 C 92.488 331.195, 105 324.272, 105 326.848 C 105 327.622, 109.785 329.964, 114.333 331.416 C 116.627 332.148, 116.373 332.798, 111.850 337.771 C 108.698 341.237, 105.729 343.674, 94.520 352 C 74.938 366.544, 71.867 385.181, 86.027 403.535 C 90.255 409.016, 90.255 409.016, 85.197 413.995 C 82.415 416.733, 79.578 420.526, 78.892 422.423 C 78.153 424.465, 76.788 426.087, 75.544 426.399 C 69.608 427.889, 65.517 437.270, 68.299 443.014 C 68.826 444.102, 68.041 445.062, 65.508 446.426 C 58.730 450.076, 58.578 458.943, 65.225 462.996 C 71.897 467.064, 151.120 465.905, 149.930 461.757 C 147.919 454.744, 149.189 447.576, 153.201 443.293 C 154.423 441.988, 155.423 439.331, 155.647 436.793 C 156.037 432.387, 158.296 426.553, 160.027 425.483 C 163.404 423.396, 152.793 410.228, 145.200 407.083 C 139.819 404.854, 142.058 400.712, 158.829 381.862 C 198.864 336.864, 169.155 260.931, 118.300 278.274 C 115.575 279.204, 114.387 279.013, 110.300 276.988 C 107.660 275.680, 105.162 274.446, 104.750 274.246 C 104.338 274.046, 104 274.148, 104 274.473 M 104.046 289.897 C 97.896 292.936, 96.235 294.287, 94.546 297.623 C 92.925 300.826, 90.183 303.177, 81.346 308.940 C 69.615 316.590, 68.357 318.245, 70.009 323.864 C 70.784 326.500, 70.784 326.500, 71.928 323.427 C 72.779 321.141, 75.175 319.097, 81.286 315.442 C 85.804 312.740, 89.725 310.264, 90 309.939 C 90.275 309.615, 91.963 308.499, 93.750 307.459 C 95.919 306.198, 97 304.808, 97 303.281 C 97 300.921, 103.892 293.191, 109.498 289.263 C 114.566 285.713, 111.885 286.025, 104.046 289.897 M 205.781 301.939 C 187.163 309.217, 180.990 332.444, 194.029 346.151 C 197.939 350.262, 197.977 350.373, 196.085 352.136 C 193.195 354.828, 192.678 357.648, 194.430 361.161 C 196.411 365.132, 196.438 365, 193.655 365 C 191.085 365, 188.599 367.310, 187.587 370.636 C 186.730 373.455, 191.291 379, 194.467 379 C 196.921 379, 196.608 382.498, 192.858 397 C 189.710 409.171, 178.909 426.996, 174.677 427.004 C 168.065 427.015, 163.513 432.989, 164.300 440.621 C 164.777 445.235, 164.600 445.992, 162.923 446.524 C 161.865 446.860, 161 447.806, 161 448.626 C 161 449.447, 160.618 449.882, 160.151 449.593 C 156.134 447.111, 156.744 458.754, 160.828 462.542 C 165.383 466.765, 265.816 466.337, 270.077 462.077 C 275.398 456.756, 273.352 448.130, 266.352 446.374 C 264.399 445.883, 264.276 445.507, 265.203 442.848 C 266.581 438.894, 265.563 433.173, 263.066 430.847 C 260.720 428.662, 256.190 426.765, 255.029 427.482 C 252.218 429.219, 240.314 407.498, 237.064 394.698 C 233.430 380.392, 233.436 379.579, 237.178 378.471 C 243.940 376.468, 244.630 366.900, 238.123 365.349 C 234.194 364.412, 233.843 364.014, 235.492 362.365 C 237.609 360.248, 237.368 355.772, 235 353.230 C 232.880 350.955, 232.385 349, 233.929 349 C 237.913 349, 243.398 334.801, 242.775 326.101 C 242.114 316.855, 233.380 302.873, 229.255 304.456 C 228.507 304.742, 228.145 304.575, 228.449 304.083 C 230.529 300.718, 213.117 299.071, 205.781 301.939 M 209.332 302.912 C 204.937 304.025, 197.532 308.508, 195.206 311.465 C 194.139 312.822, 192.909 313.610, 192.472 313.216 C 192.036 312.822, 191.974 313.015, 192.333 313.644 C 192.693 314.273, 192.315 316.396, 191.493 318.362 C 189.419 323.325, 189.623 332.598, 191.913 337.500 C 194.347 342.709, 196.654 345.680, 197.561 344.773 C 197.959 344.374, 197.730 343.379, 197.051 342.562 C 191.808 336.243, 198.036 310.893, 203.491 316.349 C 210.076 322.933, 223.986 321.015, 226.561 313.167 C 227.623 309.933, 227.623 309.933, 231.356 312.467 C 237.322 316.516, 238.004 314.911, 232.562 309.625 C 226.506 303.745, 216.950 300.983, 209.332 302.912 M 115.159 339.077 C 112.872 341.319, 111 342.939, 111 342.676 C 111 342.413, 108.862 344.227, 106.250 346.706 C 103.638 349.186, 99.475 352.599, 97 354.291 C 94.525 355.983, 92.213 357.793, 91.862 358.312 C 91.511 358.831, 90.654 358.904, 89.957 358.474 C 89.125 357.959, 88.940 358.094, 89.417 358.866 C 89.825 359.525, 88.999 361.401, 87.535 363.141 C 77.926 374.561, 79.660 390.664, 91.928 403.927 C 96.949 409.355, 96.949 409.355, 93.224 412.948 C 83.551 422.280, 82.461 426, 89.400 426 C 94.347 426, 94.848 425.782, 95.937 423.151 C 97.180 420.152, 106.255 411, 107.987 411 C 110.166 411, 108.796 408.936, 104.376 405.561 C 90.882 395.258, 86.052 382.122, 91.519 370.600 C 93.700 366.005, 101.666 357.675, 103.057 358.535 C 103.603 358.873, 103.926 358.747, 103.775 358.257 C 103.624 357.766, 105.951 354.920, 108.946 351.933 C 114.287 346.604, 121 337.675, 121 335.900 C 121 334.117, 119.245 335.072, 115.159 339.077 M 246.341 347.029 C 244.618 350.175, 244.362 351.672, 245.036 354.660 C 245.497 356.704, 245.797 358.630, 245.702 358.938 C 245.607 359.247, 246.622 360.965, 247.957 362.756 C 252.988 369.503, 252.109 377.840, 245.740 383.788 C 243.290 386.076, 243.290 386.076, 245.032 392.288 C 247.394 400.711, 250.017 407, 251.168 407 C 251.690 407, 251.881 407.384, 251.591 407.853 C 251.301 408.322, 251.695 409.559, 252.466 410.603 C 253.770 412.369, 254.034 412.120, 256.282 407 C 262.760 392.248, 262.680 393.941, 257.621 378.921 C 255.135 371.539, 252.062 360.464, 250.793 354.308 C 248.484 343.116, 248.484 343.116, 246.341 347.029 M 178.110 369.803 C 178.049 370.520, 176.878 372.757, 175.506 374.776 C 174.135 376.794, 172.294 380.611, 171.415 383.257 C 170.536 385.903, 167.634 392.432, 164.967 397.765 C 160.166 407.367, 160.138 407.480, 162.088 409.297 C 163.172 410.306, 165.176 412.903, 166.542 415.066 C 169.292 419.422, 172.288 420.199, 174 417 C 174.990 415.149, 174.760 415, 170.919 415 C 167.068 415, 166.819 414.837, 167.480 412.750 C 167.873 411.512, 168.247 409.746, 168.311 408.823 C 168.376 407.901, 168.725 407.330, 169.088 407.554 C 170.498 408.426, 181.485 379.594, 180.407 377.850 C 180.129 377.399, 179.523 375.111, 179.060 372.765 C 178.598 370.419, 178.170 369.086, 178.110 369.803 M 200.504 380.993 C 200.131 381.598, 199.006 386.089, 198.005 390.973 C 195.621 402.614, 192.521 412.292, 188.578 420.413 C 185.379 427, 185.379 427, 190.221 427 C 193.238 427, 195.197 426.529, 195.419 425.750 C 197.829 417.303, 203.020 389.213, 203.393 382.601 C 203.515 380.441, 201.529 379.336, 200.504 380.993" stroke="none" fill="#d4d4d4" fill-rule="evenodd"/></svg>